<?xml version="1.0" encoding="utf-8"?>
<!-- Generator: Adobe Illustrator 19.0.0, SVG Export Plug-In . SVG Version: 6.00 Build 0)  -->
<svg version="1.1" id="Layer_1" xmlns="http://www.w3.org/2000/svg" xmlns:xlink="http://www.w3.org/1999/xlink" x="0px" y="0px"
	 viewBox="0 0 260 260" style="enable-background:new 0 0 260 260;" xml:space="preserve">
<style type="text/css">
	.st0{fill:#0EC6FD;}
</style>
<path id="XMLID_3_" class="st0" d="M190.9,221c-5.4-13.1-20.1-19-33.2-13.6c-13.1,5.4-19,20.1-13.6,33.2
	c4.4,10.9,15.2,16.3,26.1,15.2c4.4-1.1,8.2-2.7,12-4.4C192,244.4,195.8,231.9,190.9,221z M93.6,90.5c20.1,0.5,36.4-15.8,35.9-35.9
	c-0.5-17.9-15.2-33.2-33.7-33.7c-20.1-0.5-36.4,15.8-35.9,35.9C60.4,74.7,75.1,89.9,93.6,90.5z"/>
<path id="XMLID_2_" class="st0" d="M169.2,5.2l-2.7,5.4c4.4,7.1,7.6,15.2,9.8,23.4l28.3,9.8c2.7,1.6,4.4,4.4,4.9,7.1v7.6
	c0,2.7-2.2,5.4-4.9,6.5l-28.3,9.8c-2.2,8.2-5.4,16.3-9.8,23.4l12.5,26.7c1.1,2.7,0.5,6-1.1,7.6c-1.6,1.6-3.3,3.8-5.4,5.4
	c-2.2,2.2-5.4,2.7-7.6,1.1l-26.7-12c-7.1,4.4-15.2,7.6-23.4,9.8l-9.8,28.3c-1.1,2.7-3.3,4.4-6.5,4.9h-7.6c-2.7,0-5.4-2.2-6.5-4.9
	l-9.8-28.3c-8.2-2.2-16.3-5.4-23.4-9.8l-27.2,12.5c-2.7,1.1-6,0.5-7.6-1.1c-1.6-1.6-3.8-3.3-5.4-5.4c-2.2-2.2-2.7-5.4-1.1-7.6
	l12.5-26.7c-4.4-7.1-7.6-15.2-9.8-23.4C4.4,92.2,0,111.2,0,130.8c0,9.8,1.1,19,3.3,27.7c1.1,4.9,2.7,10.3,4.4,15.2
	c0.5,1.6,1.1,2.7,1.6,4.4c14.1,35.9,43.5,64.7,80.5,76.7v-0.5l16.3-14.7c-1.1-6.5-1.1-12.5,0-18.5l-16.3-14.7
	c-1.6-1.1-2.2-3.3-1.1-4.9c0.5-2.2,1.6-3.8,2.2-6c0.5-1.6,2.7-2.7,4.4-2.7l22.3,1.1c3.8-4.9,8.2-9.2,13.1-13.1l-1.1-22.3
	c0-1.6,1.1-3.8,2.7-4.4c1.1-0.5,2.2-1.1,2.7-1.1c1.1-0.5,2.2-0.5,2.7-1.1c1.6-0.5,3.8,0,4.9,1.1l14.7,16.3c6.5-1.1,12.5-1.1,18.5,0
	l14.7-16.3c1.1-1.6,3.3-2.2,4.9-1.1c2.2,0.5,3.8,1.6,6,2.2c1.6,0.5,2.7,2.7,2.7,4.4l-1.1,22.3c4.9,3.8,9.2,8.2,13.1,13.1l22.3-1.1
	c1.6,0,3.8,1.1,4.4,2.7v0.5c10.9-19,17.4-41.3,17.4-64.7v-6.5c-0.5-6.5-1.1-13.1-2.7-19.6C249.1,56.8,214.9,19.3,169.2,5.2z"/>
</svg>
